# xmcd CD database file
#
# Track frame offsets:
#	187
#	19597
#	40617
#
# Disc length: 890 seconds
#
# Revision: 4
# Processed by: cddbd v1.5.2PL0 Copyright (c) Steve Scherf et al.
# Submitted via: CDex 1.70beta2
#
DISCID=15037803
DTITLE=PIERROT - Screen
DYEAR=1998
DGENRE=Visual Shock
TTITLE0=screen1 トリカゴ
TTITLE1=screen2 VIRTUAL AGE
TTITLE2=screen3 残酷な夜
EXTD=YEAR: 1998
EXTT0=
EXTT1=
EXTT2=
PLAYORDER=
